<svg width="600" height="600" viewBox="0 0 600 600" fill="none" xmlns="http://www.w3.org/2000/svg">
<rect width="600" height="600" rx="300" fill="url(#paint0_linear_413_602)"/>
<path d="M209.57 144.26C214.13 143.18 219.05 142.46 224.33 142.1C229.61 141.74 234.83 141.56 239.99 141.56C245.51 141.56 251.09 142.1 256.73 143.18C262.49 144.26 267.71 146.24 272.39 149.12C277.07 152 280.85 155.96 283.73 161C286.73 166.04 288.23 172.46 288.23 180.26C288.23 187.94 286.85 194.42 284.09 199.7C281.33 204.98 277.67 209.3 273.11 212.66C268.55 215.9 263.33 218.24 257.45 219.68C251.57 221.12 245.51 221.84 239.27 221.84C238.67 221.84 237.65 221.84 236.21 221.84C234.89 221.84 233.45 221.84 231.89 221.84C230.45 221.72 229.01 221.6 227.57 221.48C226.13 221.36 225.11 221.24 224.51 221.12V269H209.57V144.26ZM240.35 154.52C237.23 154.52 234.23 154.58 231.35 154.7C228.47 154.82 226.19 155.12 224.51 155.6V207.8C225.11 208.04 226.07 208.22 227.39 208.34C228.71 208.34 230.09 208.4 231.53 208.52C232.97 208.52 234.35 208.52 235.67 208.52C236.99 208.52 237.95 208.52 238.55 208.52C242.63 208.52 246.65 208.16 250.61 207.44C254.69 206.6 258.35 205.16 261.59 203.12C264.83 201.08 267.41 198.2 269.33 194.48C271.37 190.76 272.39 186.02 272.39 180.26C272.39 175.34 271.43 171.26 269.51 168.02C267.71 164.66 265.25 162.02 262.13 160.1C259.13 158.06 255.71 156.62 251.87 155.78C248.03 154.94 244.19 154.52 240.35 154.52ZM306.7 143H400.3V175.94H386.98V156.32H360.88V255.68H380.68V269H326.14V255.68H345.94V156.32H320.02V175.94H306.7V143ZM165.901 365.3L167.701 348.2H166.801L158.161 363.68L139.801 394.46H135.301L116.041 363.5L107.761 348.2H106.861L109.021 365.12V449H94.4406V323H108.301L138.181 370.88H138.541L167.341 323H180.841V449H165.901V365.3ZM200.21 386C200.21 365.12 203.87 349.04 211.19 337.76C218.63 326.48 230.03 320.84 245.39 320.84C253.79 320.84 260.87 322.4 266.63 325.52C272.51 328.64 277.25 333.08 280.85 338.84C284.45 344.48 287.03 351.32 288.59 359.36C290.15 367.28 290.93 376.16 290.93 386C290.93 406.88 287.21 422.96 279.77 434.24C272.45 445.52 260.99 451.16 245.39 451.16C237.11 451.16 230.09 449.6 224.33 446.48C218.57 443.36 213.89 438.98 210.29 433.34C206.69 427.58 204.11 420.74 202.55 412.82C200.99 404.78 200.21 395.84 200.21 386ZM216.05 386C216.05 392.96 216.47 399.56 217.31 405.8C218.27 412.04 219.89 417.56 222.17 422.36C224.45 427.04 227.45 430.82 231.17 433.7C234.89 436.46 239.63 437.84 245.39 437.84C255.71 437.84 263.21 433.64 267.89 425.24C272.69 416.84 275.09 403.76 275.09 386C275.09 379.16 274.61 372.62 273.65 366.38C272.81 360.02 271.25 354.5 268.97 349.82C266.69 345.02 263.63 341.24 259.79 338.48C255.95 335.6 251.15 334.16 245.39 334.16C235.19 334.16 227.75 338.42 223.07 346.94C218.39 355.34 216.05 368.36 216.05 386ZM334.78 370.16L325.06 351.98H324.34L326.14 370.16V449H312.1V323H321.82L372.58 401.48L381.94 418.76H382.84L380.86 401.48V323H394.9V449H385.18L334.78 370.16ZM416.07 386C416.07 365.12 419.73 349.04 427.05 337.76C434.49 326.48 445.89 320.84 461.25 320.84C469.65 320.84 476.73 322.4 482.49 325.52C488.37 328.64 493.11 333.08 496.71 338.84C500.31 344.48 502.89 351.32 504.45 359.36C506.01 367.28 506.79 376.16 506.79 386C506.79 406.88 503.07 422.96 495.63 434.24C488.31 445.52 476.85 451.16 461.25 451.16C452.97 451.16 445.95 449.6 440.19 446.48C434.43 443.36 429.75 438.98 426.15 433.34C422.55 427.58 419.97 420.74 418.41 412.82C416.85 404.78 416.07 395.84 416.07 386ZM431.91 386C431.91 392.96 432.33 399.56 433.17 405.8C434.13 412.04 435.75 417.56 438.03 422.36C440.31 427.04 443.31 430.82 447.03 433.7C450.75 436.46 455.49 437.84 461.25 437.84C471.57 437.84 479.07 433.64 483.75 425.24C488.55 416.84 490.95 403.76 490.95 386C490.95 379.16 490.47 372.62 489.51 366.38C488.67 360.02 487.11 354.5 484.83 349.82C482.55 345.02 479.49 341.24 475.65 338.48C471.81 335.6 467.01 334.16 461.25 334.16C451.05 334.16 443.61 338.42 438.93 346.94C434.25 355.34 431.91 368.36 431.91 386Z" fill="white"/>
<defs>
<linearGradient id="paint0_linear_413_602" x1="300" y1="0" x2="300" y2="600" gradientUnits="userSpaceOnUse">
<stop stop-color="white"/>
<stop offset="0.298077" stop-color="#F10000"/>
<stop offset="0.721154" stop-color="#F10000"/>
<stop offset="1" stop-color="white"/>
</linearGradient>
</defs>
</svg>
