<svg width="895" height="492" viewBox="0 0 895 492" fill="none" xmlns="http://www.w3.org/2000/svg">
<mask id="path-1-inside-1_330_16" fill="white">
<path d="M430.358 123.202H847.906V209.344H895V349.574H819.91V456.75H221.558V491.999H55.0459V431.709H83.2959V349.574H46.293V209.344H83.2686V161.265H0V0H430.358V123.202Z"/>
</mask>
<path d="M430.358 123.202H847.906V209.344H895V349.574H819.91V456.75H221.558V491.999H55.0459V431.709H83.2959V349.574H46.293V209.344H83.2686V161.265H0V0H430.358V123.202Z" fill="#D9D9D9"/>
<path d="M430.358 123.202H416.358V137.202H430.358V123.202ZM847.906 123.202H861.906V109.202H847.906V123.202ZM847.906 209.344H833.906V223.344H847.906V209.344ZM895 209.344H909V195.344H895V209.344ZM895 349.574V363.574H909V349.574H895ZM819.91 349.574V335.574H805.91V349.574H819.91ZM819.91 456.75V470.75H833.91V456.75H819.91ZM221.558 456.75V442.75H207.558V456.75H221.558ZM221.558 491.999V505.999H235.558V491.999H221.558ZM55.0459 491.999H41.0459V505.999H55.0459V491.999ZM55.0459 431.709V417.709H41.0459V431.709H55.0459ZM83.2959 431.709V445.709H97.2959V431.709H83.2959ZM83.2959 349.574H97.2959V335.574H83.2959V349.574ZM46.293 349.574H32.293V363.574H46.293V349.574ZM46.293 209.344V195.344H32.293V209.344H46.293ZM83.2686 209.344V223.344H97.2686V209.344H83.2686ZM83.2686 161.265H97.2686V147.265H83.2686V161.265ZM0 161.265H-14V175.265H0V161.265ZM0 0V-14H-14V0H0ZM430.358 0H444.358V-14H430.358V0ZM430.358 123.202V137.202H847.906V123.202V109.202H430.358V123.202ZM847.906 123.202H833.906V209.344H847.906H861.906V123.202H847.906ZM847.906 209.344V223.344H895V209.344V195.344H847.906V209.344ZM895 209.344H881V349.574H895H909V209.344H895ZM895 349.574V335.574H819.91V349.574V363.574H895V349.574ZM819.91 349.574H805.91V456.75H819.91H833.91V349.574H819.91ZM819.91 456.75V442.75H221.558V456.75V470.75H819.91V456.75ZM221.558 456.75H207.558V491.999H221.558H235.558V456.75H221.558ZM221.558 491.999V477.999H55.0459V491.999V505.999H221.558V491.999ZM55.0459 491.999H69.0459V431.709H55.0459H41.0459V491.999H55.0459ZM55.0459 431.709V445.709H83.2959V431.709V417.709H55.0459V431.709ZM83.2959 431.709H97.2959V349.574H83.2959H69.2959V431.709H83.2959ZM83.2959 349.574V335.574H46.293V349.574V363.574H83.2959V349.574ZM46.293 349.574H60.293V209.344H46.293H32.293V349.574H46.293ZM46.293 209.344V223.344H83.2686V209.344V195.344H46.293V209.344ZM83.2686 209.344H97.2686V161.265H83.2686H69.2686V209.344H83.2686ZM83.2686 161.265V147.265H0V161.265V175.265H83.2686V161.265ZM0 161.265H14V0H0H-14V161.265H0ZM0 0V14H430.358V0V-14H0V0ZM430.358 0H416.358V123.202H430.358H444.358V0H430.358Z" fill="#F10000" mask="url(#path-1-inside-1_330_16)"/>
</svg>
