<svg width="864" height="457" viewBox="0 0 864 457" fill="none" xmlns="http://www.w3.org/2000/svg">
<mask id="path-1-inside-1_330_36" fill="white">
<path d="M781 92.0312H817.684V224H864V301.025H817.684V396.133H691.51V457H398V396.133H96.6836V354.119H43V277.093H96.6836V182.062H0V0H781V92.0312Z"/>
</mask>
<path d="M781 92.0312H817.684V224H864V301.025H817.684V396.133H691.51V457H398V396.133H96.6836V354.119H43V277.093H96.6836V182.062H0V0H781V92.0312Z" fill="#D9D9D9"/>
<path d="M781 92.0312H767V106.031H781V92.0312ZM817.684 92.0312H831.684V78.0312H817.684V92.0312ZM817.684 224H803.684V238H817.684V224ZM864 224H878V210H864V224ZM864 301.025V315.025H878V301.025H864ZM817.684 301.025V287.025H803.684V301.025H817.684ZM817.684 396.133V410.133H831.684V396.133H817.684ZM691.51 396.133V382.133H677.51V396.133H691.51ZM691.51 457V471H705.51V457H691.51ZM398 457H384V471H398V457ZM398 396.133H412V382.133H398V396.133ZM96.6836 396.133H82.6836V410.133H96.6836V396.133ZM96.6836 354.119H110.684V340.119H96.6836V354.119ZM43 354.119H29V368.119H43V354.119ZM43 277.093V263.093H29V277.093H43ZM96.6836 277.093V291.093H110.684V277.093H96.6836ZM96.6836 182.062H110.684V168.062H96.6836V182.062ZM0 182.062H-14V196.062H0V182.062ZM0 0V-14H-14V0H0ZM781 0H795V-14H781V0ZM781 92.0312V106.031H817.684V92.0312V78.0312H781V92.0312ZM817.684 92.0312H803.684V224H817.684H831.684V92.0312H817.684ZM817.684 224V238H864V224V210H817.684V224ZM864 224H850V301.025H864H878V224H864ZM864 301.025V287.025H817.684V301.025V315.025H864V301.025ZM817.684 301.025H803.684V396.133H817.684H831.684V301.025H817.684ZM817.684 396.133V382.133H691.51V396.133V410.133H817.684V396.133ZM691.51 396.133H677.51V457H691.51H705.51V396.133H691.51ZM691.51 457V443H398V457V471H691.51V457ZM398 457H412V396.133H398H384V457H398ZM398 396.133V382.133H96.6836V396.133V410.133H398V396.133ZM96.6836 396.133H110.684V354.119H96.6836H82.6836V396.133H96.6836ZM96.6836 354.119V340.119H43V354.119V368.119H96.6836V354.119ZM43 354.119H57V277.093H43H29V354.119H43ZM43 277.093V291.093H96.6836V277.093V263.093H43V277.093ZM96.6836 277.093H110.684V182.062H96.6836H82.6836V277.093H96.6836ZM96.6836 182.062V168.062H0V182.062V196.062H96.6836V182.062ZM0 182.062H14V0H0H-14V182.062H0ZM0 0V14H781V0V-14H0V0ZM781 0H767V92.0312H781H795V0H781Z" fill="#F10000" mask="url(#path-1-inside-1_330_36)"/>
</svg>
