<svg width="930" height="563" viewBox="0 0 930 563" fill="none" xmlns="http://www.w3.org/2000/svg">
<mask id="path-1-inside-1_330_31" fill="white">
<path d="M426 137.164H887.973V193.231H930.001V563H716.25V508.608H244.251V561.462H65V320.384H116.973V176.211H0V0H426V137.164Z"/>
</mask>
<path d="M426 137.164H887.973V193.231H930.001V563H716.25V508.608H244.251V561.462H65V320.384H116.973V176.211H0V0H426V137.164Z" fill="#D9D9D9"/>
<path d="M426 137.164H412V151.164H426V137.164ZM887.973 137.164H901.973V123.164H887.973V137.164ZM887.973 193.231H873.973V207.231H887.973V193.231ZM930.001 193.231H944.001V179.231H930.001V193.231ZM930.001 563V577H944.001V563H930.001ZM716.25 563H702.25V577H716.25V563ZM716.25 508.608H730.25V494.608H716.25V508.608ZM244.251 508.608V494.608H230.251V508.608H244.251ZM244.251 561.462V575.462H258.251V561.462H244.251ZM65 561.462H51V575.462H65V561.462ZM65 320.384V306.384H51V320.384H65ZM116.973 320.384V334.384H130.973V320.384H116.973ZM116.973 176.211H130.973V162.211H116.973V176.211ZM0 176.211H-14V190.211H0V176.211ZM0 0V-14H-14V0H0ZM426 0H440V-14H426V0ZM426 137.164V151.164H887.973V137.164V123.164H426V137.164ZM887.973 137.164H873.973V193.231H887.973H901.973V137.164H887.973ZM887.973 193.231V207.231H930.001V193.231V179.231H887.973V193.231ZM930.001 193.231H916.001V563H930.001H944.001V193.231H930.001ZM930.001 563V549H716.25V563V577H930.001V563ZM716.25 563H730.25V508.608H716.25H702.25V563H716.25ZM716.25 508.608V494.608H244.251V508.608V522.608H716.25V508.608ZM244.251 508.608H230.251V561.462H244.251H258.251V508.608H244.251ZM244.251 561.462V547.462H65V561.462V575.462H244.251V561.462ZM65 561.462H79V320.384H65H51V561.462H65ZM65 320.384V334.384H116.973V320.384V306.384H65V320.384ZM116.973 320.384H130.973V176.211H116.973H102.973V320.384H116.973ZM116.973 176.211V162.211H0V176.211V190.211H116.973V176.211ZM0 176.211H14V0H0H-14V176.211H0ZM0 0V14H426V0V-14H0V0ZM426 0H412V137.164H426H440V0H426Z" fill="#F10000" mask="url(#path-1-inside-1_330_31)"/>
</svg>
