<svg width="738" height="768" viewBox="0 0 738 768" fill="none" xmlns="http://www.w3.org/2000/svg">
<mask id="path-1-inside-1_330_22" fill="white">
<path d="M0 177H78V217H12V291H78V324H118V393H217V422H117V551H207V716H249V768H682V696H336V551H426V422H336V393H426V324H738V119H710V0H0V177Z"/>
</mask>
<path d="M0 177H78V217H12V291H78V324H118V393H217V422H117V551H207V716H249V768H682V696H336V551H426V422H336V393H426V324H738V119H710V0H0V177Z" fill="#D9D9D9"/>
<path d="M0 177V191H-14V177H0ZM78 177V163H92V177H78ZM78 217H92V231H78V217ZM12 217H-2V203H12V217ZM12 291V305H-2V291H12ZM78 291V277H92V291H78ZM78 324V338H64V324H78ZM118 324V310H132V324H118ZM118 393V407H104V393H118ZM217 393V379H231V393H217ZM217 422H231V436H217V422ZM117 422H103V408H117V422ZM117 551V565H103V551H117ZM207 551V537H221V551H207ZM207 716V730H193V716H207ZM249 716V702H263V716H249ZM249 768V782H235V768H249ZM682 768H696V782H682V768ZM682 696V682H696V696H682ZM336 696V710H322V696H336ZM336 551H322V537H336V551ZM426 551H440V565H426V551ZM426 422V408H440V422H426ZM336 422V436H322V422H336ZM336 393H322V379H336V393ZM426 393H440V407H426V393ZM426 324H412V310H426V324ZM738 324H752V338H738V324ZM738 119V105H752V119H738ZM710 119V133H696V119H710ZM710 0V-14H724V0H710ZM0 0H-14V-14H0V0ZM0 177V163H78V177V191H0V177ZM78 177H92V217H78H64V177H78ZM78 217V231H12V217V203H78V217ZM12 217H26V291H12H-2V217H12ZM12 291V277H78V291V305H12V291ZM78 291H92V324H78H64V291H78ZM78 324V310H118V324V338H78V324ZM118 324H132V393H118H104V324H118ZM118 393V379H217V393V407H118V393ZM217 393H231V422H217H203V393H217ZM217 422V436H117V422V408H217V422ZM117 422H131V551H117H103V422H117ZM117 551V537H207V551V565H117V551ZM207 551H221V716H207H193V551H207ZM207 716V702H249V716V730H207V716ZM249 716H263V768H249H235V716H249ZM249 768V754H682V768V782H249V768ZM682 768H668V696H682H696V768H682ZM682 696V710H336V696V682H682V696ZM336 696H322V551H336H350V696H336ZM336 551V537H426V551V565H336V551ZM426 551H412V422H426H440V551H426ZM426 422V436H336V422V408H426V422ZM336 422H322V393H336H350V422H336ZM336 393V379H426V393V407H336V393ZM426 393H412V324H426H440V393H426ZM426 324V310H738V324V338H426V324ZM738 324H724V119H738H752V324H738ZM738 119V133H710V119V105H738V119ZM710 119H696V0H710H724V119H710ZM710 0V14H0V0V-14H710V0ZM0 0H14V177H0H-14V0H0Z" fill="#F10000" mask="url(#path-1-inside-1_330_22)"/>
</svg>
