<svg width="1303" height="685" viewBox="0 0 1303 685" fill="none" xmlns="http://www.w3.org/2000/svg">
<mask id="path-1-inside-1_330_10" fill="white">
<path d="M674.866 118.451H1187.08V193.043H1303V521.116H1187.08V566.127H1239V679.152H1044V615.562H313.51V685H20V471.105H114.078V207.929H0V0H674.866V118.451Z"/>
</mask>
<path d="M674.866 118.451H1187.08V193.043H1303V521.116H1187.08V566.127H1239V679.152H1044V615.562H313.51V685H20V471.105H114.078V207.929H0V0H674.866V118.451Z" fill="#D9D9D9"/>
<path d="M674.866 118.451H660.866V132.451H674.866V118.451ZM1187.08 118.451H1201.08V104.451H1187.08V118.451ZM1187.08 193.043H1173.08V207.043H1187.08V193.043ZM1303 193.043H1317V179.043H1303V193.043ZM1303 521.116V535.116H1317V521.116H1303ZM1187.08 521.116V507.116H1173.08V521.116H1187.08ZM1187.08 566.127H1173.08V580.127H1187.08V566.127ZM1239 566.127H1253V552.127H1239V566.127ZM1239 679.152V693.152H1253V679.152H1239ZM1044 679.152H1030V693.152H1044V679.152ZM1044 615.562H1058V601.562H1044V615.562ZM313.51 615.562V601.562H299.51V615.562H313.51ZM313.51 685V699H327.51V685H313.51ZM20 685H6V699H20V685ZM20 471.105V457.105H6V471.105H20ZM114.078 471.105V485.105H128.078V471.105H114.078ZM114.078 207.929H128.078V193.929H114.078V207.929ZM0 207.929H-14V221.929H0V207.929ZM0 0V-14H-14V0H0ZM674.866 0H688.866V-14H674.866V0ZM674.866 118.451V132.451H1187.08V118.451V104.451H674.866V118.451ZM1187.08 118.451H1173.08V193.043H1187.08H1201.08V118.451H1187.08ZM1187.08 193.043V207.043H1303V193.043V179.043H1187.08V193.043ZM1303 193.043H1289V521.116H1303H1317V193.043H1303ZM1303 521.116V507.116H1187.08V521.116V535.116H1303V521.116ZM1187.08 521.116H1173.08V566.127H1187.08H1201.08V521.116H1187.08ZM1187.08 566.127V580.127H1239V566.127V552.127H1187.08V566.127ZM1239 566.127H1225V679.152H1239H1253V566.127H1239ZM1239 679.152V665.152H1044V679.152V693.152H1239V679.152ZM1044 679.152H1058V615.562H1044H1030V679.152H1044ZM1044 615.562V601.562H313.51V615.562V629.562H1044V615.562ZM313.51 615.562H299.51V685H313.51H327.51V615.562H313.51ZM313.51 685V671H20V685V699H313.51V685ZM20 685H34V471.105H20H6V685H20ZM20 471.105V485.105H114.078V471.105V457.105H20V471.105ZM114.078 471.105H128.078V207.929H114.078H100.078V471.105H114.078ZM114.078 207.929V193.929H0V207.929V221.929H114.078V207.929ZM0 207.929H14V0H0H-14V207.929H0ZM0 0V14H674.866V0V-14H0V0ZM674.866 0H660.866V118.451H674.866H688.866V0H674.866Z" fill="#F10000" mask="url(#path-1-inside-1_330_10)"/>
</svg>
