<svg width="765" height="737" viewBox="0 0 765 737" fill="none" xmlns="http://www.w3.org/2000/svg">
<rect x="409" width="358" height="737" fill="url(#paint0_linear_363_519)"/>
<path d="M56.9189 645.457H0.00195312V725.504H60.6641L249.859 813.715V737.297L60.7783 646.313V645.457H58.9971L56.9189 644.457V645.457ZM0.00195312 541.297H58.5215L249.859 630.508V554.09L60.7783 463.105V461.249H0.00195312V541.297ZM0.966797 357.088H58.5195L249.859 446.299V369.881L61.7432 279.362V277.041H0.966797V357.088ZM0.966797 171.915H56.9189V172.132L249.859 262.089V185.671L61.7432 95.1519V91.8657H0.966797V171.915Z" fill="url(#paint1_linear_363_519)"/>
<path d="M59.4541 644.456H0.000976562V719.683H62.0898L249.859 632.136V631.918H410V552.834H249.859L59.4541 644.456ZM59.4541 460.248H0.000976562V535.475H62.0898L249.859 447.929V447.71H410V368.626H249.859L59.4541 460.248ZM59.4521 276.04H0.96582V351.267H62.0898L249.859 263.72V263.502H410V184.418H249.859L59.4521 276.04ZM61.457 90.8662H0.96582V166.093H56.9189V166.095H64.1543L249.859 79.5107V79.293H410V0.208008H249.859L61.457 90.8662Z" fill="url(#paint2_linear_363_519)"/>
<defs>
<linearGradient id="paint0_linear_363_519" x1="767" y1="368.5" x2="339.592" y2="368.796" gradientUnits="userSpaceOnUse">
<stop offset="0.0432692" stop-color="#737373"/>
<stop offset="0.456731" stop-color="#D9D9D9"/>
<stop offset="1" stop-color="#737373"/>
</linearGradient>
<linearGradient id="paint1_linear_363_519" x1="0.00195312" y1="159.38" x2="249.859" y2="159.38" gradientUnits="userSpaceOnUse">
<stop stop-color="#7A7A7A"/>
<stop offset="0.495192" stop-color="#B8B8B8"/>
<stop offset="1" stop-color="#7A7A7A"/>
</linearGradient>
<linearGradient id="paint2_linear_363_519" x1="11.5773" y1="331.792" x2="573.034" y2="331.123" gradientUnits="userSpaceOnUse">
<stop offset="0.413462" stop-color="#D9D9D9"/>
<stop offset="0.721154" stop-color="#737373"/>
<stop offset="0.913462" stop-color="#D9D9D9" stop-opacity="0.93"/>
<stop offset="1" stop-color="#737373"/>
</linearGradient>
</defs>
</svg>
