<svg width="766" height="996" viewBox="0 0 766 996" fill="none" xmlns="http://www.w3.org/2000/svg">
<path d="M1.00195 171.754H59.5215L250.859 260.954V184.545L61.7783 93.5703V91.7139H1.00195V171.754ZM1.00195 -12.4326H59.5215L250.859 76.7676V0.358398L61.7783 -90.6162V-92.4727H1.00195V-12.4326ZM1.9668 -196.62H59.5195L250.859 -107.419V-183.829L62.7432 -274.339V-276.659H1.9668V-196.62ZM1.9668 -381.772H57.9189V-381.556L250.859 -291.608V-368.018L62.7432 -458.528V-461.812H1.9668V-381.772ZM1.9668 -565.96H57.9189V-565.742L250.859 -475.795V-552.205L62.7432 -642.715V-646H1.9668V-565.96Z" fill="url(#paint0_linear_423_2134)"/>
<rect x="410" y="-79" width="356" height="1075" fill="url(#paint1_linear_423_2134)"/>
<path d="M0.00195312 909.847H58.5195L249.859 999.058V922.64L60.7783 831.655V829.799H0.00195312V909.847ZM0.00195312 725.64H58.5215L249.859 814.851V738.433L60.7783 647.447V645.591H0.00195312V725.64ZM0.966797 541.431H58.5195L249.859 630.642V554.224L61.7432 463.704V461.383H0.966797V541.431ZM0.966797 356.257H56.9189V356.475L249.859 446.432V370.014L61.7432 279.494V276.209H0.966797V356.257ZM0.966797 172.049H56.9189V172.267L249.859 262.224V185.806L61.7432 95.2861V92H0.966797V172.049Z" fill="url(#paint2_linear_423_2134)"/>
<path d="M247 999H410V922H247V999ZM59.4541 829.456H0.000976562V904.683H62.0898L249.859 817.136V816.918H410V737.834H249.859L59.4541 829.456ZM59.4541 645.248H0.000976562V720.475H62.0898L249.859 632.929V632.71H410V553.626H249.859L59.4541 645.248ZM59.4521 461.04H0.96582V536.267H62.0898L249.859 448.72V448.502H410V369.418H249.859L59.4521 461.04ZM61.457 275.866H0.96582V351.093H56.9189V351.095H64.1543L249.859 264.511V264.293H410V185.208H249.859L61.457 275.866ZM61.459 91.6572H0.96582V166.884H64.1582L249.859 80.3018V80.084H410V1H249.859L61.459 91.6572Z" fill="url(#paint3_linear_423_2134)"/>
<defs>
<linearGradient id="paint0_linear_423_2134" x1="1.00195" y1="-561.29" x2="250.859" y2="-561.29" gradientUnits="userSpaceOnUse">
<stop stop-color="#7A7A7A"/>
<stop offset="0.495192" stop-color="#B8B8B8"/>
<stop offset="1" stop-color="#7A7A7A"/>
</linearGradient>
<linearGradient id="paint1_linear_423_2134" x1="766" y1="458.5" x2="340.979" y2="458.7" gradientUnits="userSpaceOnUse">
<stop offset="0.0432692" stop-color="#737373"/>
<stop offset="0.456731" stop-color="#CECBCB"/>
<stop offset="1" stop-color="#737373"/>
</linearGradient>
<linearGradient id="paint2_linear_423_2134" x1="0.00195312" y1="176.72" x2="249.859" y2="176.72" gradientUnits="userSpaceOnUse">
<stop stop-color="#7A7A7A"/>
<stop offset="0.495192" stop-color="#B8B8B8"/>
<stop offset="1" stop-color="#7A7A7A"/>
</linearGradient>
<linearGradient id="paint3_linear_423_2134" x1="11.5773" y1="461.039" x2="573.035" y2="460.556" gradientUnits="userSpaceOnUse">
<stop offset="0.413462" stop-color="#D9D9D9"/>
<stop offset="0.721154" stop-color="#737373"/>
<stop offset="0.913462" stop-color="#D9D9D9" stop-opacity="0.93"/>
<stop offset="1" stop-color="#737373"/>
</linearGradient>
</defs>
</svg>
