<svg width="1728" height="733" viewBox="0 0 1728 733" fill="none" xmlns="http://www.w3.org/2000/svg">
<path d="M0 733H295V-1H0V733Z" fill="url(#paint0_linear_334_198)"/>
<path d="M130.007 186.907H145.062L194.312 209.876V190.201L145.65 166.778V166.298H130.007V186.907ZM130.007 139.479H145.062L194.312 162.448V142.773L145.65 119.351V118.87H130.007V139.479ZM130.249 92.0527H145.062L194.312 115.021V95.3467L145.893 72.041V71.4434H130.249V92.0527ZM130.249 44.3779H144.65V44.4336L194.312 67.5947V47.9199L145.893 24.6143V23.7686H130.249V44.3779ZM130.249 -3.0498H144.65V-2.99316L194.312 20.168V0.493164L145.893 -22.8125V-23.6592H130.249V-3.0498Z" fill="url(#paint1_linear_334_198)"/>
<path d="M194.312 210H235.531V190.136H194.312V210ZM145.302 166.298H130.001V185.665H145.981L194.312 163.125V163.069H235.531V142.708H194.312L145.302 166.298ZM145.302 118.871H130.001V138.238H145.981L194.312 115.698V115.643H235.531V95.2812H194.312L145.302 118.871ZM145.304 71.4434H130.247V90.8115H145.981L194.312 68.2715V68.2158H235.531V47.8545H194.312L145.304 71.4434ZM194.312 0.426758L145.819 23.7686H130.247V43.1357H144.65V43.1367H146.513L194.312 20.8447V20.7881H235.531V0.426758H194.312ZM145.819 -23.6592H130.247V-4.29102H146.515L194.312 -26.583V-26.6387H235.531V-47H194.312L145.819 -23.6592Z" fill="url(#paint2_linear_334_198)"/>
<rect x="1005" y="-1" width="424" height="734" fill="url(#paint3_linear_334_198)"/>
<path d="M1429 -1H1728V733H1429V-1Z" fill="url(#paint4_linear_334_198)"/>
<path d="M131.007 234.907H146.062L195.312 257.876V238.201L146.65 214.778V214.298H131.007V234.907ZM131.007 187.479H146.062L195.312 210.448V190.773L146.65 167.351V166.87H131.007V187.479ZM131.249 140.053H146.062L195.312 163.021V143.347L146.893 120.041V119.443H131.249V140.053ZM131.249 92.377H145.65V92.4336L195.312 115.595V95.9199L146.893 72.6143V71.7676H131.249V92.377ZM131.249 44.9502H145.65V45.0059L195.312 68.167V48.4922L146.893 25.1865V24.3408H131.249V44.9502Z" fill="url(#paint5_linear_334_198)"/>
<path d="M195.312 258H236.531V238.136H195.312V258ZM146.302 214.298H131.001V233.666L146.645 233.665H146.981L195.312 211.125V211.069H236.531V190.708H195.312L146.302 214.298ZM146.302 166.871H131.001V186.238H146.981L195.312 163.698V163.643H236.531V143.281H195.312L146.302 166.871ZM146.304 119.443H131.247V138.812H146.981L195.312 116.271V116.216H236.531V95.8545H195.312L146.304 119.443ZM146.817 71.7686H131.247V91.1357H145.65V91.1367H147.513L195.312 68.8438V68.7881H236.531V48.4268H195.312L146.817 71.7686ZM146.819 24.3408H131.247V43.709H147.515L195.312 21.417V21.3613H236.531V1H195.312L146.819 24.3408Z" fill="url(#paint6_linear_334_198)"/>
<path d="M131.007 471.907H146.062L195.312 494.876V475.201L146.65 451.778V451.298H131.007V471.907ZM131.007 424.479H146.062L195.312 447.448V427.773L146.65 404.351V403.87H131.007V424.479ZM131.249 377.053H146.062L195.312 400.021V380.347L146.893 357.041V356.443H131.249V377.053ZM131.249 329.377H145.65V329.434L195.312 352.595V332.92L146.893 309.614V308.768H131.249V329.377ZM131.249 281.95H145.65V282.006L195.312 305.167V285.492L146.893 262.187V261.341H131.249V281.95Z" fill="url(#paint7_linear_334_198)"/>
<path d="M195.312 495H236.531V475.136H195.312V495ZM146.302 451.298H131.001V470.666L146.645 470.665H146.981L195.312 448.125V448.069H236.531V427.708H195.312L146.302 451.298ZM146.302 403.871H131.001V423.238H146.981L195.312 400.698V400.643H236.531V380.281H195.312L146.302 403.871ZM146.304 356.443H131.247V375.812H146.981L195.312 353.271V353.216H236.531V332.854H195.312L146.304 356.443ZM146.817 308.769H131.247V328.136H145.65V328.137H147.513L195.312 305.844V305.788H236.531V285.427H195.312L146.817 308.769ZM146.819 261.341H131.247V280.709H147.515L195.312 258.417V258.361H236.531V238H195.312L146.819 261.341Z" fill="url(#paint8_linear_334_198)"/>
<path d="M131.007 709.907H146.062L195.312 732.876V713.201L146.65 689.778V689.298H131.007V709.907ZM131.007 662.479H146.062L195.312 685.448V665.773L146.65 642.351V641.87H131.007V662.479ZM131.249 615.053H146.062L195.312 638.021V618.347L146.893 595.041V594.443H131.249V615.053ZM131.249 567.377H145.65V567.434L195.312 590.595V570.92L146.893 547.614V546.768H131.249V567.377ZM131.249 519.95H145.65V520.006L195.312 543.167V523.492L146.893 500.187V499.341H131.249V519.95Z" fill="url(#paint9_linear_334_198)"/>
<path d="M195.312 733H236.531V713.136H195.312V733ZM146.302 689.298H131.001V708.666L146.645 708.665H146.981L195.312 686.125V686.069H236.531V665.708H195.312L146.302 689.298ZM146.302 641.871H131.001V661.238H146.981L195.312 638.698V638.643H236.531V618.281H195.312L146.302 641.871ZM146.304 594.443H131.247V613.812H146.981L195.312 591.271V591.216H236.531V570.854H195.312L146.304 594.443ZM146.817 546.769H131.247V566.136H145.65V566.137H147.513L195.312 543.844V543.788H236.531V523.427H195.312L146.817 546.769ZM146.819 499.341H131.247V518.709H147.515L195.312 496.417V496.361H236.531V476H195.312L146.819 499.341Z" fill="url(#paint10_linear_334_198)"/>
<path d="M1009 733H675V-1H1009V733Z" fill="url(#paint11_linear_334_198)"/>
<rect x="237" y="-1" width="441" height="734" fill="url(#paint12_linear_334_198)"/>
<defs>
<linearGradient id="paint0_linear_334_198" x1="-28.5" y1="365.365" x2="165" y2="365.365" gradientUnits="userSpaceOnUse">
<stop stop-color="#737373"/>
<stop offset="0.355769" stop-color="#CECBCB"/>
<stop offset="1" stop-color="#737373"/>
</linearGradient>
<linearGradient id="paint1_linear_334_198" x1="130.007" y1="-1.84682" x2="194.312" y2="-1.84682" gradientUnits="userSpaceOnUse">
<stop stop-color="#7A7A7A"/>
<stop offset="0.9999" stop-color="#B8B8B8"/>
<stop offset="1" stop-color="#7A7A7A"/>
</linearGradient>
<linearGradient id="paint2_linear_334_198" x1="132.591" y1="81.615" x2="258.191" y2="81.5138" gradientUnits="userSpaceOnUse">
<stop offset="0.413462" stop-color="#CECBCB"/>
<stop offset="0.845119" stop-color="#737373"/>
<stop offset="0.913462" stop-color="#CECBCB" stop-opacity="0.93"/>
<stop offset="1" stop-color="#737373"/>
</linearGradient>
<linearGradient id="paint3_linear_334_198" x1="1498.52" y1="289.362" x2="992.875" y2="293.805" gradientUnits="userSpaceOnUse">
<stop stop-color="#737373"/>
<stop offset="0.648012" stop-color="#CECBCB"/>
<stop offset="1" stop-color="#737373"/>
</linearGradient>
<linearGradient id="paint4_linear_334_198" x1="1728" y1="366" x2="1429" y2="366" gradientUnits="userSpaceOnUse">
<stop offset="0.0817308" stop-color="#737373"/>
<stop offset="0.543269" stop-color="#CECBCB"/>
<stop offset="0.975962" stop-color="#737373"/>
</linearGradient>
<linearGradient id="paint5_linear_334_198" x1="131.007" y1="46.1532" x2="195.312" y2="46.1532" gradientUnits="userSpaceOnUse">
<stop stop-color="#7A7A7A"/>
<stop offset="0.9999" stop-color="#B8B8B8"/>
<stop offset="1" stop-color="#7A7A7A"/>
</linearGradient>
<linearGradient id="paint6_linear_334_198" x1="133.591" y1="129.615" x2="259.191" y2="129.514" gradientUnits="userSpaceOnUse">
<stop offset="0.413462" stop-color="#CECBCB"/>
<stop offset="0.845119" stop-color="#737373"/>
<stop offset="0.913462" stop-color="#CECBCB" stop-opacity="0.93"/>
<stop offset="1" stop-color="#737373"/>
</linearGradient>
<linearGradient id="paint7_linear_334_198" x1="131.007" y1="283.153" x2="195.312" y2="283.153" gradientUnits="userSpaceOnUse">
<stop stop-color="#7A7A7A"/>
<stop offset="0.9999" stop-color="#B8B8B8"/>
<stop offset="1" stop-color="#7A7A7A"/>
</linearGradient>
<linearGradient id="paint8_linear_334_198" x1="133.591" y1="366.615" x2="259.191" y2="366.514" gradientUnits="userSpaceOnUse">
<stop offset="0.413462" stop-color="#CECBCB"/>
<stop offset="0.845119" stop-color="#737373"/>
<stop offset="0.913462" stop-color="#CECBCB" stop-opacity="0.93"/>
<stop offset="1" stop-color="#737373"/>
</linearGradient>
<linearGradient id="paint9_linear_334_198" x1="131.007" y1="521.153" x2="195.312" y2="521.153" gradientUnits="userSpaceOnUse">
<stop stop-color="#7A7A7A"/>
<stop offset="0.9999" stop-color="#B8B8B8"/>
<stop offset="1" stop-color="#7A7A7A"/>
</linearGradient>
<linearGradient id="paint10_linear_334_198" x1="133.591" y1="604.615" x2="259.191" y2="604.514" gradientUnits="userSpaceOnUse">
<stop offset="0.413462" stop-color="#CECBCB"/>
<stop offset="0.845119" stop-color="#737373"/>
<stop offset="0.913462" stop-color="#CECBCB" stop-opacity="0.93"/>
<stop offset="1" stop-color="#737373"/>
</linearGradient>
<linearGradient id="paint11_linear_334_198" x1="1008.52" y1="510.26" x2="675" y2="510.26" gradientUnits="userSpaceOnUse">
<stop offset="0.221154" stop-color="#D9D9D9"/>
<stop offset="0.956731" stop-color="#737373"/>
</linearGradient>
<linearGradient id="paint12_linear_334_198" x1="678" y1="366" x2="151.5" y2="366.45" gradientUnits="userSpaceOnUse">
<stop offset="0.0432692" stop-color="#737373"/>
<stop offset="0.456731" stop-color="#D9D9D9"/>
<stop offset="1" stop-color="#737373"/>
</linearGradient>
</defs>
</svg>
