<svg width="766" height="996" viewBox="0 0 766 996" fill="none" xmlns="http://www.w3.org/2000/svg">
<path d="M1.00195 171.401H59.5215L250.859 260.602V184.192L61.7783 93.2178V91.3613H1.00195V171.401ZM1.00195 -12.7852H59.5215L250.859 76.415V0.00585938L61.7783 -90.9688V-92.8252H1.00195V-12.7852ZM1.9668 -196.973H59.5195L250.859 -107.771V-184.182L62.7432 -274.691V-277.012H1.9668V-196.973ZM1.9668 -382.125H57.9189V-381.908L250.859 -291.961V-368.37L62.7432 -458.881V-462.165H1.9668V-382.125ZM1.9668 -566.312H57.9189V-566.095L250.859 -476.147V-552.558L62.7432 -643.067V-646.353H1.9668V-566.312Z" fill="url(#paint0_linear_334_111)"/>
<rect x="411.004" y="-78.8862" width="355" height="1075" fill="url(#paint1_linear_334_111)"/>
<path d="M0.00195312 909.504H58.5195L249.859 998.715V922.297L60.7783 831.313V829.457H0.00195312V909.504ZM0.00195312 725.297H58.5215L249.859 814.508V738.09L60.7783 647.105V645.249H0.00195312V725.297ZM0.966797 541.088H58.5195L249.859 630.299V553.881L61.7432 463.362V461.041H0.966797V541.088ZM0.966797 355.915H56.9189V356.132L249.859 446.089V369.671L61.7432 279.152V275.867H0.966797V355.915ZM0.966797 171.707H56.9189V171.924L249.859 261.881V185.463L61.7432 94.9438V91.6577H0.966797V171.707Z" fill="url(#paint2_linear_334_111)"/>
<path d="M250.859 998.197H411V921.042H250.859V998.197ZM60.4541 828.456H1.00098V903.683H63.0898L250.859 816.136V815.918H411V736.834H250.859L60.4541 828.456ZM60.4541 644.248H1.00098V719.475H63.0898L250.859 631.929V631.71H411V552.626H250.859L60.4541 644.248ZM60.4521 460.04H1.96582V535.267H63.0898L250.859 447.72V447.502H411V368.418H250.859L60.4521 460.04ZM62.457 274.866H1.96582V350.093H57.9189V350.095H65.1543L250.859 263.511V263.293H411V184.208H250.859L62.457 274.866ZM62.459 90.6572H1.96582V165.884H65.1582L250.859 79.3018V79.084H411V0H250.859L62.459 90.6572Z" fill="url(#paint3_linear_334_111)"/>
<defs>
<linearGradient id="paint0_linear_334_111" x1="1.00195" y1="-561.642" x2="250.859" y2="-561.642" gradientUnits="userSpaceOnUse">
<stop stop-color="#7A7A7A"/>
<stop offset="0.495192" stop-color="#B8B8B8"/>
<stop offset="1" stop-color="#7A7A7A"/>
</linearGradient>
<linearGradient id="paint1_linear_334_111" x1="766.004" y1="458.614" x2="342.177" y2="458.813" gradientUnits="userSpaceOnUse">
<stop offset="0.0432692" stop-color="#737373"/>
<stop offset="0.456731" stop-color="#D9D9D9"/>
<stop offset="1" stop-color="#737373"/>
</linearGradient>
<linearGradient id="paint2_linear_334_111" x1="0.00195312" y1="176.378" x2="249.859" y2="176.378" gradientUnits="userSpaceOnUse">
<stop stop-color="#7A7A7A"/>
<stop offset="0.495192" stop-color="#B8B8B8"/>
<stop offset="1" stop-color="#7A7A7A"/>
</linearGradient>
<linearGradient id="paint3_linear_334_111" x1="12.5773" y1="460.039" x2="574.035" y2="459.556" gradientUnits="userSpaceOnUse">
<stop offset="0.413462" stop-color="#D9D9D9"/>
<stop offset="0.721154" stop-color="#737373"/>
<stop offset="0.913462" stop-color="#D9D9D9" stop-opacity="0.93"/>
<stop offset="1" stop-color="#737373"/>
</linearGradient>
</defs>
</svg>
