<svg width="765" height="999" viewBox="0 0 765 999" fill="none" xmlns="http://www.w3.org/2000/svg">
<rect x="410.004" width="355" height="737" fill="url(#paint0_linear_318_1979)"/>
<path d="M0.00195312 908.504H58.5195L249.859 997.715V921.297L60.7783 830.313V828.457H0.00195312V908.504ZM0.00195312 724.297H58.5215L249.859 813.508V737.09L60.7783 646.105V644.249H0.00195312V724.297ZM0.966797 540.089H58.5215L249.859 629.3V552.882L61.7432 462.362V460.041H0.966797V540.089ZM0.966797 354.915H56.9189V355.132L249.859 445.09V368.672L61.7432 278.152V274.867H0.966797V354.915ZM0.966797 170.707H56.9189V170.924L249.859 260.881V184.463L61.7432 93.9438V90.6577H0.966797V170.707Z" fill="url(#paint1_linear_318_1979)"/>
<path d="M249.859 998.198H410V921.042H249.859V998.198ZM59.4541 828.456H0.000976562V903.683H62.0898L249.859 816.137V815.919H410V736.834H249.859L59.4541 828.456ZM59.4541 644.248H0.000976562V719.475H62.0898L249.859 631.928V631.71H410V552.626H249.859L59.4541 644.248ZM59.4521 460.04H0.96582V535.267H62.0898L249.859 447.72V447.502H410V368.418H249.859L59.4521 460.04ZM61.457 274.866H0.96582V350.093H56.9189V350.095H64.1543L249.859 263.511V263.293H410V184.209H249.859L61.457 274.866ZM61.459 90.6572H0.96582V165.884H64.1582L249.859 79.3018V79.084H410V0H249.859L61.459 90.6572Z" fill="url(#paint2_linear_318_1979)"/>
<defs>
<linearGradient id="paint0_linear_318_1979" x1="765.004" y1="368.5" x2="341.177" y2="368.791" gradientUnits="userSpaceOnUse">
<stop offset="0.0432692" stop-color="#737373"/>
<stop offset="0.456731" stop-color="#D9D9D9"/>
<stop offset="1" stop-color="#737373"/>
</linearGradient>
<linearGradient id="paint1_linear_318_1979" x1="0.00195312" y1="175.378" x2="249.859" y2="175.378" gradientUnits="userSpaceOnUse">
<stop stop-color="#7A7A7A"/>
<stop offset="0.495192" stop-color="#B8B8B8"/>
<stop offset="1" stop-color="#7A7A7A"/>
</linearGradient>
<linearGradient id="paint2_linear_318_1979" x1="11.5773" y1="460.039" x2="573.035" y2="459.557" gradientUnits="userSpaceOnUse">
<stop offset="0.413462" stop-color="#D9D9D9"/>
<stop offset="0.721154" stop-color="#737373"/>
<stop offset="0.913462" stop-color="#D9D9D9" stop-opacity="0.93"/>
<stop offset="1" stop-color="#737373"/>
</linearGradient>
</defs>
</svg>
